<?xml version="1.0" ?><!DOCTYPE svg  PUBLIC '-//W3C//DTD SVG 1.0//EN'  'http://www.w3.org/TR/2001/REC-SVG-20010904/DTD/svg10.dtd'><svg enable-background="new 0 0 32 32" height="32px" id="Layer_1" version="1.0" viewBox="0 0 32 32" width="32px" xml:space="preserve" xmlns="http://www.w3.org/2000/svg" xmlns:xlink="http://www.w3.org/1999/xlink"><g><path d="M5,8.978c-1.104,0-2,0.896-2,2v8c0,1.104,0.896,2,2,2s2-0.896,2-2v-8C7,9.873,6.104,8.978,5,8.978z" fill="#85C808"/><path d="M27,8.978c-1.104,0-2,0.896-2,2v8c0,1.104,0.896,2,2,2s2-0.896,2-2v-8C29,9.873,28.104,8.978,27,8.978z" fill="#85C808"/><path d="M8,24.978h2v5c0,1.104,0.896,2,2,2s2-0.896,2-2v-5h4v5c0,1.104,0.896,2,2,2s2-0.896,2-2v-5h2v-15H8V24.978z   " fill="#85C808"/><path d="M20.723,2.53l1.027-1.779c0.139-0.24,0.057-0.545-0.184-0.684c-0.238-0.139-0.545-0.057-0.683,0.184   l-1.001,1.734C18.732,1.345,17.41,0.978,16,0.978c-1.409,0-2.731,0.367-3.882,1.008L11.116,0.25   c-0.139-0.239-0.443-0.321-0.684-0.183c-0.238,0.138-0.32,0.443-0.183,0.683l1.028,1.78C9.294,3.986,8,6.328,8,8.978h16   C24,6.328,22.706,3.986,20.723,2.53z M13,5.978c-0.553,0-1-0.447-1-1s0.447-1,1-1s1,0.447,1,1S13.553,5.978,13,5.978z M19,5.978   c-0.553,0-1-0.447-1-1s0.447-1,1-1s1,0.447,1,1S19.553,5.978,19,5.978z" fill="#85C808"/></g><g/><g/><g/><g/><g/><g/></svg>