<?xml version="1.0" ?><svg baseProfile="tiny" id="Layer_1" overflow="scroll" version="1.1" viewBox="0 0 24 24" xml:space="preserve" xmlns="http://www.w3.org/2000/svg" xmlns:xlink="http://www.w3.org/1999/xlink"><path d="M1.762207,22.75c0,0.4140625,0.3359375,0.75,0.75,0.75h18.9511719c0.4140625,0,0.75-0.3359375,0.75-0.75V20  c0-0.4140625-0.3359375-0.75-0.75-0.75s-0.75,0.3359375-0.75,0.75v2H3.262207v-2c0-0.4140625-0.3359375-0.75-0.75-0.75  s-0.75,0.3359375-0.75,0.75V22.75z" fill="#1D1D1D"/><path d="M1.762207,7.5c0,0.4140625,0.3359375,0.75,0.75,0.75s0.75-0.3359375,0.75-0.75V2H16.237793v4  c0,0.4140625,0.3359375,0.75,0.75,0.75h3.75V7.5c0,0.4140625,0.3359375,0.75,0.75,0.75s0.75-0.3359375,0.75-0.75V5  c0-0.1972656-0.078125-0.3867188-0.2167969-0.5273438l-3.7094727-3.75C18.1704102,0.5800781,17.9785156,0.5,17.7783203,0.5H2.512207  c-0.4140625,0-0.75,0.3359375-0.75,0.75V7.5z M20.6798096,5.25H17.737793V2.2754517L20.6798096,5.25z" fill="#1D1D1D"/><path d="M6.3349609,11.25c0.4140625,0,0.75-0.3359375,0.75-0.75s-0.3359375-0.75-0.75-0.75H2.6982422  c-0.4140625,0-0.75,0.3359375-0.75,0.75V17c0,0.4140625,0.3359375,0.75,0.75,0.75h3.6367188c0.4140625,0,0.75-0.3359375,0.75-0.75  s-0.3359375-0.75-0.75-0.75H3.4482422v-5H6.3349609z" fill="#1D1D1D"/><path d="M11.1831055,16.9951172c0.4140625,0,0.75-0.3359375,0.75-0.75v-1.6318359h1.6313477  c0.4140625,0,0.75-0.3359375,0.75-0.75s-0.3359375-0.75-0.75-0.75h-1.6313477v-1.6308594c0-0.4140625-0.3359375-0.75-0.75-0.75  s-0.75,0.3359375-0.75,0.75v1.6308594H8.8017578c-0.4140625,0-0.75,0.3359375-0.75,0.75s0.3359375,0.75,0.75,0.75h1.6313477  v1.6318359C10.4331055,16.6591797,10.769043,16.9951172,11.1831055,16.9951172z" fill="#1D1D1D"/><path d="M18.9204102,16.9951172c0.4140625,0,0.75-0.3359375,0.75-0.75v-1.6318359h1.6313477  c0.4140625,0,0.75-0.3359375,0.75-0.75s-0.3359375-0.75-0.75-0.75h-1.6313477v-1.6308594c0-0.4140625-0.3359375-0.75-0.75-0.75  s-0.75,0.3359375-0.75,0.75v1.6308594h-1.6313477c-0.4140625,0-0.75,0.3359375-0.75,0.75s0.3359375,0.75,0.75,0.75h1.6313477  v1.6318359C18.1704102,16.6591797,18.5063477,16.9951172,18.9204102,16.9951172z" fill="#1D1D1D"/></svg>