<?xml version="1.0" ?><svg height="512px" id="Layer_1" style="enable-background:new 0 0 512 512;" version="1.1" viewBox="0 0 512 512" width="512px" xml:space="preserve" xmlns="http://www.w3.org/2000/svg" xmlns:cc="http://creativecommons.org/ns#" xmlns:dc="http://purl.org/dc/elements/1.1/" xmlns:inkscape="http://www.inkscape.org/namespaces/inkscape" xmlns:rdf="http://www.w3.org/1999/02/22-rdf-syntax-ns#" xmlns:sodipodi="http://sodipodi.sourceforge.net/DTD/sodipodi-0.dtd" xmlns:svg="http://www.w3.org/2000/svg"><defs id="defs19"/><g id="g2996" transform="translate(0.32800146,0.07000866)"><g id="g2987" style="fill:#e44d26;fill-opacity:1"><path d="m 511.672,255.92999 c 0,141.3849 -114.61511,256 -256,256 -141.3849,0 -256.00000293,-114.6151 -256.00000293,-256 C -0.32800293,114.5451 114.2871,-0.07000732 255.672,-0.07000732 c 141.38489,0 256,114.61510732 256,255.99999732 z" id="path2989" style="fill:#e44d26;fill-opacity:1"/></g><g id="g4311" transform="translate(546.9375,-48.721188)"><polygon id="polygon4184" points="255.8,486.486 389.249,449.489 418.938,116.909 93.063,116.909 122.719,449.542 " style="fill:#ffffff;fill-rule:evenodd" transform="matrix(0.67510549,0,0,0.67510549,-464.09284,131.48662)"/><path d="m -353.99731,163.21455 h -12.80338 v -13.82818 h -13.99561 v 41.87544 h 13.99629 v -14.02262 h 12.8027 v 14.02262 h 13.99629 v -41.87544 h -13.99697 v 13.82818 z m 20.08101,0.0581 h 12.32203 v 27.9892 h 13.99696 v -27.9892 h 12.32742 v -13.88624 h -38.64641 v 13.88624 z m 68.35173,0.82768 -8.97823,-14.71392 h -14.59375 v 41.87544 h 13.69451 v -20.75612 l 9.63578,14.88945 h 0.24102 l 9.62903,-14.88945 v 20.75612 h 13.93822 v -41.87544 h -14.59983 l -8.96675,14.71392 z m 44.53401,13.31983 v -28.03375 h -14.00034 v 41.87544 h 33.68372 v -13.84169 h -19.68338 z" id="path4208" style="fill:#ffffff;fill-rule:evenodd"/><path d="m -360.5,255.75 138.25,0 -2.25,28.5 -105.75,0 3,27.5 99.5,0 -7,85.25 -56,15.25 -56.75,-15.25 -4.25,-43.5 27.75,0 2.25,21.5 30.75,8.75 30.75,-8.75 3,-35.25 -95.5,0 z" id="path4309" style="fill:#e44d26;fill-opacity:1;stroke:none" transform="translate(-0.32800146,-0.07000866)"/></g></g><g id="Layer_1_1_"/></svg>