<?xml version="1.0" ?><svg height="32px" version="1.1" viewBox="0 0 32 32" width="32px" xmlns="http://www.w3.org/2000/svg" xmlns:sketch="http://www.bohemiancoding.com/sketch/ns" xmlns:xlink="http://www.w3.org/1999/xlink"><title/><desc/><defs/><g fill="none" fill-rule="evenodd" id="Page-1" stroke="none" stroke-width="1"><g fill="#157EFB" id="icon-78-document-file-java"><path d="M19,26 L19,28.0025781 C19,29.1090746 18.1057238,30 17.0025781,30 L1.99742191,30 C0.890925393,30 0,29.1012878 0,27.9926701 L0,5.00732994 C0,3.89833832 0.899249601,3 2.0085302,3 L12,3 L12,9.00189865 C12,10.1132936 12.8980806,11 14.0059191,11 L19,11 L19,13 L6.00684834,13 C4.34621185,13 3,14.3422643 3,15.9987856 L3,23.0012144 C3,24.6573979 4.33599155,26 6.00684834,26 L19,26 L19,26 L19,26 Z M13,3 L13,8.99707067 C13,9.55097324 13.4509752,10 13.990778,10 L19,10 L13,3 L13,3 Z M6.00732994,14 C4.89871223,14 4,14.9001762 4,15.992017 L4,23.007983 C4,24.1081436 4.89833832,25 6.00732994,25 L28.9926701,25 C30.1012878,25 31,24.0998238 31,23.007983 L31,15.992017 C31,14.8918564 30.1016617,14 28.9926701,14 L6.00732994,14 L6.00732994,14 Z M20.5,21.25 L22,16 L23,16 L21,23 L20.5,23 L20,23 L18,16 L19,16 L20.5,21.25 L20.5,21.25 Z M6,20 L6,20.9940809 C6,22.1019194 6.8938998,23 8.0048815,23 L8.9951185,23 C10.102384,23 11,22.1134452 11,20.9940809 L11,16 L10,16 L10,21.009222 C10,21.5490248 9.55275191,22 9.00104344,22 L7.99895656,22 C7.44266033,22 7,21.5522847 7,21 L7,20 L6,20 L6,20 Z M16,20 L13,20 L13,23 L12,23 L12,19.5 L12,18 C12,16.8877296 12.897616,16 14.0048815,16 L14.9951185,16 C16.1061002,16 17,16.8954305 17,18 L17,20 L17,23 L16,23 L16,20 L16,20 Z M13.9989566,17 C13.4472481,17 13,17.4438648 13,18 L13,19 L16,19 L16,18 C16,17.4477153 15.5573397,17 15.0010434,17 L13.9989566,17 L13.9989566,17 Z M28,20 L25,20 L25,23 L24,23 L24,19.5 L24,18 C24,16.8877296 24.897616,16 26.0048815,16 L26.9951185,16 C28.1061002,16 29,16.8954305 29,18 L29,20 L29,23 L28,23 L28,20 L28,20 Z M25.9989566,17 C25.4472481,17 25,17.4438648 25,18 L25,19 L28,19 L28,18 C28,17.4477153 27.5573397,17 27.0010434,17 L25.9989566,17 L25.9989566,17 Z" id="document-file-java"/></g></g></svg>