<?xml version="1.0" ?><svg enable-background="new 0 0 512 512" height="512px" id="Layer_1" version="1.1" viewBox="0 0 512 512" width="512px" xml:space="preserve" xmlns="http://www.w3.org/2000/svg" xmlns:xlink="http://www.w3.org/1999/xlink"><g><polyline fill="#3558A8" points="0,512 512,512 512,0 0,0 0,512  "/><polyline fill="#010101" opacity="0.102" points="389.001,225 95.001,225 81.001,294 337.001,512 512.001,512 512.001,330    389.001,225  "/><path d="M319.774,228.355l0.299,1.259c0.084,0.362-0.145,0.654-0.514,0.654" fill="#5DA3C2"/><path d="M295.801,226.195c-0.074,0.348-0.164,0.789-0.226,1.081l-2.629,12.306l2.766-12.965L295.801,226.195" fill="#5DA3C2"/><polyline fill="#5DA3C2" points="217.02,234.431 215.568,239.573 217.02,234.433 217.02,234.431  "/><path d="M388.68,219.797l-1.566-6.622c-1.235-4.793-4.735-7.059-12.604-7.059h-33.091   c-0.763,0-1.524,0.344-1.68,1.09l-12.555,59.54c-0.164,0.754-0.211,1.289-0.126,1.66c0.09,0.384,1.561,0.313,2.316,0.313h11.462   c0.767,0,2.16,0.058,2.565-0.105c0.424-0.175,0.611-1.31,0.767-2.062l4.051-20.876l4.949-23.157   c0.161-0.742,0.911-1.351,1.671-1.351l32.779-0.022C388.375,221.146,388.854,220.54,388.68,219.797" fill="#FFFFFF"/><path d="M435.312,195.66c-0.769,0.009-14.538,0-14.538,0c-0.762,0-1.741,0.819-2.165,1.448l-25.519,37.541   c-0.435,0.631-0.927,0.608-1.097-0.134l-1.885-8.228c-0.162-0.746-0.924-1.354-1.695-1.354h-16.401   c-0.755,0-1.208,0.63-1.011,1.366l7.352,25.773c0.213,0.739,0.232,1.943,0.043,2.682l-3.428,13.055   c-0.183,0.74,0.286,0.964,1.06,0.964h16.194c0.76,0,1.547-0.222,1.732-0.964l3.432-13.238c0.188-0.738,0.716-1.742,1.172-2.356   l41.645-55.228c0.469-0.605,0.4-1.331-0.359-1.331L435.312,195.66" fill="#FFFFFF"/><path d="M264.556,206.167h-14.802c-0.754,0-1.527,0.266-1.678,1.013l-4.892,22.891l-4.873,21.919   c-0.156,0.742-0.911,0.691-1.674,0.691h-9.727c-9.624,0-8.513-6.079-6.534-15.192c0.023-0.091,6.172-30.309,6.172-30.309   c0.135-0.745-0.363-1.013-1.117-1.013h-14.103c-0.762,0-1.518,0.268-1.666,1.013l-5.673,30.285   c-2.83,16.375-2.916,30.784,16.074,31.259c0.313,0.012,29.984,0,29.984,0c0.768,0,1.521-0.252,1.685-0.989l6.439-30.371   l6.415-30.497C264.587,206.866,264.815,206.167,264.556,206.167" fill="#FFFFFF"/><path d="M117.126,206.116h-15.869c-0.761,0-1.529,0.181-1.697,0.93l-2.864,12.391   c-0.163,0.732,0.324,1.318,1.092,1.318h15.195c0.768,0,1.529-0.692,1.69-1.431l2.759-12.484   C117.432,206.84,117.652,206.116,117.126,206.116" fill="#FFFFFF"/><path d="M96.759,224.934c-0.755,0-1.53,0.603-1.693,1.348l-2.139,9.45l-4.773,21.824c0,0-2.541,11.604-2.785,12.33   c0,0-2.139,8.376-7.248,8.04c-2.377-0.156-5.094-0.702-5.094-0.702H73.02c-1.427-0.432-1.527,1.051-1.702,1.792l-3.152,13.598   c-0.181,0.743,0.307,1.413,1.061,1.425c0,0,6.833,0.962,11.656,0.962h0.793c11.919,0,18.215-7.008,22.24-26.036l4.717-22.025   l4.424-20.492c0.163-0.746-0.286-1.438-1.048-1.438" fill="#FFFFFF"/><path d="M309.047,232.22c0,0.828-2.613,0.671-2.613,0.671l-20.81-0.152c-0.719,0-0.925-1.008-0.975-1.728   c-0.001-0.025,0.053-0.865,0.113-1.073c1.609-5.581,6.408-8.767,14.016-8.767c8.561,0,10.389,4.244,10.389,8.953 M302.009,206.023   c-26.692,0-33.066,16.5-36.61,32.853c-3.546,16.674-3.242,29.854,24.378,29.854h0.997c10.958,0,24.271,0,24.271,0   c0.748-0.014,1.498-0.698,1.647-1.439l2.715-10.576c0.157-0.75-0.349-0.971-1.103-0.971H293.46c-8.998,0-12.219-2.771-11.904-8.996   c-0.006-0.707,0.805-2.51,1.565-2.51h38.265c1.68-0.01,1.734-0.994,1.734-0.994C327.015,225.663,327.271,206.023,302.009,206.023" fill="#FFFFFF"/><path d="M172.539,240.382l-3.077,10.513c-0.212,0.738-1.08,1.229-1.841,1.229h-15.869   c-12.042,0-14.969-9.307-12.042-23.193c2.94-14.196,8.761-22.98,20.605-23.869c16.193-1.221,19.507,10.216,15.581,23.36   L172.539,240.382 M186.641,251.522c0,0,7.476-18.16,9.174-28.658c2.321-14.045-4.706-34.418-31.875-34.418   c-27.008,0-38.727,19.448-43.213,40.594c-4.467,21.297,1.381,39.839,28.24,39.689l40.994-0.025   c0.755-0.002,1.542-0.613,1.735-1.341l3.458-13.16c0.188-0.743-0.281-1.347-1.048-1.349l-3.301-0.025l-3.302-0.014   c-0.648-0.007-1.022-0.428-0.936-0.986C186.579,251.728,186.592,251.626,186.641,251.522" fill="#FFFFFF"/></g></svg>