<?xml version="1.0" ?><!DOCTYPE svg  PUBLIC '-//W3C//DTD SVG 1.1//EN'  'http://www.w3.org/Graphics/SVG/1.1/DTD/svg11.dtd'><svg enable-background="new 0 0 512 512" id="Layer_1" version="1.1" viewBox="0 0 512 512" xml:space="preserve" xmlns="http://www.w3.org/2000/svg" xmlns:xlink="http://www.w3.org/1999/xlink"><circle cx="256" cy="256" fill="#0769AD" id="ellipse" r="256"/><g id="logo"><g><path d="M116.3,174.3c-28.3,40.7-24.8,93.7-3.2,137c0.5,1,1.1,2,1.6,3.1c0.3,0.7,0.7,1.3,1,2    c0.2,0.4,0.4,0.7,0.6,1.1c0.4,0.7,0.7,1.3,1.1,2c0.7,1.2,1.4,2.4,2.1,3.5c0.4,0.7,0.8,1.3,1.2,1.9c0.8,1.2,1.6,2.5,2.4,3.8    c0.3,0.5,0.7,1.1,1,1.6c1.1,1.7,2.3,3.3,3.5,5c0,0,0.1,0.1,0.1,0.1c0.2,0.3,0.4,0.5,0.6,0.8c1,1.4,2.1,2.8,3.2,4.2    c0.4,0.5,0.8,1,1.2,1.5c1,1.2,1.9,2.4,2.9,3.6c0.4,0.4,0.7,0.9,1.1,1.3c1.3,1.6,2.7,3.1,4.1,4.7c0,0,0.1,0.1,0.1,0.1    c0.1,0.1,0.1,0.1,0.2,0.2c1.3,1.5,2.7,2.9,4.1,4.4c0.4,0.5,0.9,0.9,1.3,1.3c1.1,1.1,2.2,2.2,3.3,3.3c0.5,0.4,0.9,0.9,1.4,1.3    c1.5,1.4,3,2.8,4.5,4.1c0,0,0,0,0.1,0c0.3,0.2,0.5,0.5,0.8,0.7c1.4,1.2,2.7,2.3,4.1,3.5c0.6,0.5,1.1,0.9,1.7,1.4    c1.1,0.9,2.3,1.8,3.4,2.7c0.6,0.5,1.2,0.9,1.8,1.4c1.3,0.9,2.5,1.9,3.8,2.8c0.5,0.4,0.9,0.7,1.4,1c0.1,0.1,0.3,0.2,0.4,0.3    c1.2,0.9,2.5,1.7,3.8,2.5c0.5,0.4,1.1,0.7,1.6,1.1c1.9,1.2,3.9,2.4,5.9,3.6c0.5,0.3,1.1,0.6,1.6,0.9c1.5,0.8,2.9,1.6,4.4,2.5    c0.8,0.4,1.6,0.8,2.4,1.2c1.1,0.5,2.1,1.1,3.1,1.6c0.2,0.1,0.5,0.2,0.7,0.4c0.4,0.2,0.9,0.4,1.3,0.6c1.6,0.8,3.3,1.6,5,2.3    c0.4,0.2,0.7,0.3,1.1,0.5c1.9,0.9,3.9,1.7,5.8,2.4c0.5,0.2,0.9,0.4,1.4,0.6c1.8,0.7,3.6,1.4,5.5,2c0.2,0.1,0.5,0.1,0.7,0.2    c2,0.7,4.1,1.4,6.1,2c0.5,0.1,1,0.3,1.5,0.4c2.1,0.7,4.1,1.4,6.3,1.8c137,25,176.8-82.3,176.8-82.3c-33.4,43.5-92.7,55-149,42.2    c-2.1-0.5-4.2-1.1-6.3-1.8c-0.5-0.1-1-0.3-1.6-0.5c-2-0.6-4-1.3-6-2c-0.3-0.1-0.6-0.2-0.8-0.3c-1.8-0.7-3.6-1.3-5.3-2    c-0.5-0.2-1-0.4-1.5-0.6c-1.9-0.8-3.9-1.6-5.8-2.4c-0.4-0.2-0.8-0.3-1.1-0.5c-1.6-0.7-3.2-1.5-4.9-2.3c-0.5-0.2-0.9-0.4-1.4-0.7    c-1.2-0.6-2.5-1.3-3.8-1.9c-0.8-0.4-1.7-0.9-2.5-1.3c-1.5-0.8-3-1.6-4.5-2.5c-0.5-0.3-1-0.5-1.5-0.8c-2-1.2-3.9-2.4-5.9-3.6    c-0.5-0.3-1.1-0.7-1.6-1c-1.4-0.9-2.8-1.8-4.2-2.8c-0.5-0.3-0.9-0.7-1.3-0.9c-1.3-0.9-2.6-1.9-3.9-2.9c-0.6-0.4-1.2-0.9-1.7-1.3    c-1.2-0.9-2.4-1.8-3.6-2.8c-0.5-0.4-1.1-0.9-1.6-1.3c-1.5-1.2-3-2.5-4.4-3.7c-0.2-0.1-0.3-0.3-0.5-0.4c-1.6-1.4-3.1-2.8-4.7-4.2    c-0.5-0.4-0.9-0.8-1.3-1.2c-1.1-1.1-2.3-2.2-3.3-3.3c-0.4-0.4-0.9-0.9-1.3-1.3c-1.4-1.4-2.8-2.9-4.1-4.4c-0.1-0.1-0.1-0.1-0.2-0.2    c-1.4-1.6-2.8-3.1-4.2-4.7c-0.4-0.4-0.7-0.9-1.1-1.3c-1-1.2-2-2.5-3-3.7c-0.4-0.4-0.7-0.9-1.1-1.4c-1.2-1.5-2.3-3.1-3.5-4.6    c-31.2-42.6-42.4-101.3-17.5-149.5" fill="#FFFFFF"/><path d="M204.3,139.9c-20.5,29.5-19.4,69-3.4,100.1c2.7,5.2,5.7,10.3,9.1,15.1c3.1,4.4,6.5,9.6,10.5,13.2    c1.5,1.6,3,3.2,4.6,4.8c0.4,0.4,0.8,0.8,1.2,1.2c1.5,1.5,3.1,2.9,4.7,4.4c0.1,0.1,0.1,0.1,0.2,0.2c0,0,0,0,0,0    c1.8,1.6,3.6,3.1,5.5,4.5c0.4,0.3,0.8,0.7,1.2,1c1.9,1.4,3.8,2.8,5.7,4.2c0.1,0,0.1,0.1,0.2,0.1c0.9,0.6,1.7,1.1,2.6,1.7    c0.4,0.3,0.8,0.6,1.2,0.8c1.4,0.9,2.8,1.8,4.2,2.6c0.2,0.1,0.4,0.2,0.6,0.4c1.2,0.7,2.5,1.4,3.8,2.1c0.4,0.2,0.9,0.5,1.3,0.7    c0.9,0.5,1.7,0.9,2.6,1.4c0.1,0.1,0.3,0.1,0.4,0.2c1.8,0.9,3.6,1.7,5.5,2.6c0.4,0.2,0.8,0.3,1.2,0.5c1.5,0.6,3,1.2,4.5,1.8    c0.6,0.2,1.3,0.5,1.9,0.7c1.4,0.5,2.8,1,4.1,1.4c0.6,0.2,1.2,0.4,1.9,0.6c2,0.6,3.9,1.4,6,1.7C391.6,325.4,416,244,416,244    c-22,31.7-64.6,46.8-110.1,35c-2-0.5-4-1.1-6-1.7c-0.6-0.2-1.2-0.4-1.8-0.6c-1.4-0.5-2.8-0.9-4.2-1.5c-0.6-0.2-1.3-0.5-1.9-0.7    c-1.5-0.6-3-1.2-4.5-1.8c-0.4-0.2-0.8-0.3-1.2-0.5c-1.9-0.8-3.7-1.7-5.5-2.6c-0.9-0.4-1.9-0.9-2.8-1.4c-0.5-0.3-1.1-0.6-1.6-0.8    c-1.2-0.6-2.3-1.3-3.5-2c-0.3-0.2-0.6-0.3-0.8-0.5c-1.4-0.8-2.8-1.7-4.2-2.6c-0.4-0.3-0.9-0.6-1.3-0.9c-0.9-0.6-1.8-1.2-2.7-1.8    c-2-1.3-3.8-2.8-5.7-4.2c-0.4-0.4-0.9-0.7-1.3-1c-19.9-15.7-35.7-37.2-43.2-61.6c-7.9-25.3-6.2-53.6,7.5-76.6" fill="#FFFFFF"/><path d="M278.2,114.3c-12.1,17.8-13.3,39.8-4.9,59.5c8.8,20.9,26.9,37.2,48.1,44.9c0.9,0.3,1.7,0.6,2.6,0.9    c0.4,0.1,0.8,0.2,1.2,0.4c1.2,0.4,2.5,0.8,3.8,1.1c58.4,11.3,74.2-30,78.5-36.1c-13.9,20-37.2,24.8-65.8,17.8    c-2.3-0.5-4.7-1.4-6.9-2.1c-2.8-1-5.6-2.1-8.2-3.4c-5.1-2.4-9.9-5.4-14.4-8.8c-25.6-19.4-41.5-56.5-24.8-86.7" fill="#FFFFFF"/></g></g></svg>