<?xml version="1.0" ?><!DOCTYPE svg  PUBLIC '-//W3C//DTD SVG 1.1//EN'  'http://www.w3.org/Graphics/SVG/1.1/DTD/svg11.dtd'><svg enable-background="new 0 0 512 512" id="Layer_1" version="1.1" viewBox="0 0 512 512" xml:space="preserve" xmlns="http://www.w3.org/2000/svg" xmlns:xlink="http://www.w3.org/1999/xlink"><circle cx="256" cy="256" fill="#6CC24A" id="ellipse" r="256"/><g id="logo"><path d="M135.2,259.1c0-1.1-0.6-2-1.5-2.5l-24.2-13.9c-0.4-0.2-0.9-0.4-1.3-0.4c0,0-0.2,0-0.3,0   c-0.5,0-0.9,0.1-1.3,0.4l-24.2,13.9c-0.9,0.5-1.5,1.5-1.5,2.5l0.1,37.4c0,0.5,0.3,1,0.7,1.3c0.4,0.3,1,0.3,1.4,0l14.4-8.2   c0.9-0.5,1.5-1.5,1.5-2.5v-17.5c0-1,0.6-2,1.5-2.5l6.1-3.5c0.5-0.3,1-0.4,1.5-0.4c0.5,0,1,0.1,1.5,0.4l6.1,3.5   c0.9,0.5,1.5,1.5,1.5,2.5V287c0,1,0.6,2,1.5,2.5l14.4,8.2c0.4,0.3,1,0.3,1.5,0c0.4-0.3,0.7-0.7,0.7-1.3L135.2,259.1z" fill="#FFFFFF"/><path d="M264.2,207.6c-0.5-0.3-1-0.2-1.5,0c-0.4,0.3-0.7,0.7-0.7,1.3v37.1c0,0.4-0.2,0.7-0.5,0.9   c-0.3,0.2-0.7,0.2-1,0l-6.1-3.5c-0.9-0.5-2-0.5-2.9,0l-24.2,14c-0.9,0.5-1.5,1.5-1.5,2.5v27.9c0,1,0.6,2,1.5,2.5l24.2,14   c0.9,0.5,2,0.5,2.9,0l24.2-14c0.9-0.5,1.5-1.5,1.5-2.5v-69.6c0-1.1-0.6-2-1.5-2.5L264.2,207.6z M262,278.6c0,0.3-0.1,0.5-0.4,0.6   l-8.3,4.8c-0.2,0.1-0.5,0.1-0.7,0l-8.3-4.8c-0.2-0.1-0.4-0.4-0.4-0.6V269c0-0.3,0.1-0.5,0.4-0.6l8.3-4.8c0.2-0.1,0.5-0.1,0.7,0   l8.3,4.8c0.2,0.1,0.4,0.4,0.4,0.6L262,278.6L262,278.6z" fill="#FFFFFF"/><path d="M350.7,268.7c0.9-0.5,1.5-1.5,1.5-2.5v-6.8c0-1-0.6-2-1.5-2.5l-24-13.9c-0.9-0.5-2-0.5-2.9,0l-24.2,14   c-0.9,0.5-1.5,1.5-1.5,2.5v27.9c0,1,0.6,2,1.5,2.5l24,13.7c0.9,0.5,2,0.5,2.9,0l14.5-8.1c0.5-0.3,0.7-0.7,0.8-1.3   c0-0.5-0.3-1-0.7-1.3l-24.3-14c-0.5-0.3-0.7-0.7-0.7-1.3V269c0-0.5,0.3-1,0.7-1.3l7.6-4.4c0.4-0.3,1-0.3,1.5,0l7.6,4.4   c0.5,0.3,0.7,0.7,0.7,1.3v6.9c0,0.5,0.3,1,0.7,1.3c0.5,0.3,1,0.3,1.5,0L350.7,268.7z" fill="#FFFFFF"/><path d="M179.1,242.8c0.9-0.5,2-0.5,2.9,0l24.2,13.9c0.9,0.5,1.5,1.5,1.5,2.5v27.9c0,1-0.6,2-1.5,2.5l-24.2,14   c-0.9,0.5-2,0.5-2.9,0l-24.2-14c-0.9-0.5-1.5-1.5-1.5-2.5v-27.9c0-1,0.6-2,1.5-2.5L179.1,242.8z" fill="#FFFFFF"/><path d="M397.6,304.1c-0.8,0-1.7-0.2-2.4-0.6l-7.6-4.5c-1.1-0.6-0.6-0.9-0.2-1c1.5-0.5,1.8-0.6,3.4-1.6   c0.2-0.1,0.4-0.1,0.6,0l5.8,3.5c0.2,0.1,0.5,0.1,0.7,0l22.8-13.2c0.2-0.1,0.3-0.4,0.3-0.6v-26.3c0-0.3-0.1-0.5-0.4-0.6L398,246.1   c-0.2-0.1-0.5-0.1-0.7,0l-22.8,13.1c-0.2,0.1-0.4,0.4-0.4,0.6v26.3c0,0.3,0.1,0.5,0.4,0.6l6.2,3.6c3.4,1.7,5.5-0.3,5.5-2.3v-26   c0-0.4,0.3-0.7,0.7-0.7h2.9c0.4,0,0.7,0.3,0.7,0.7v26c0,4.5-2.5,7.1-6.7,7.1c-1.3,0-2.4,0-5.3-1.4l-6-3.4c-1.5-0.9-2.4-2.4-2.4-4.2   v-26.3c0-1.7,0.9-3.3,2.4-4.2l22.8-13.2c1.4-0.8,3.4-0.8,4.8,0l22.8,13.2c1.5,0.9,2.4,2.4,2.4,4.2v26.3c0,1.7-0.9,3.3-2.4,4.2   L400,303.5C399.3,303.9,398.5,304.1,397.6,304.1z" fill="#FFFFFF"/><path d="M404.7,286c-10,0-12.1-4.6-12.1-8.4c0-0.4,0.3-0.7,0.7-0.7h2.9c0.3,0,0.6,0.2,0.7,0.6   c0.4,3,1.8,4.5,7.8,4.5c4.8,0,6.8-1.1,6.8-3.6c0-1.5-0.6-2.6-8-3.3c-6.2-0.6-10.1-2-10.1-7c0-4.6,3.9-7.3,10.4-7.3   c7.3,0,10.9,2.5,11.4,8c0,0.2,0,0.4-0.2,0.5c-0.1,0.1-0.3,0.2-0.5,0.2h-3c-0.3,0-0.6-0.2-0.6-0.5c-0.7-3.2-2.4-4.2-7.1-4.2   c-5.2,0-5.9,1.8-5.9,3.2c0,1.7,0.7,2.1,7.8,3.1c7,0.9,10.3,2.2,10.3,7.2C416,283.1,411.9,286,404.7,286z" fill="#FFFFFF"/><path d="M324.9,267.4c0.2-0.1,0.4-0.1,0.6,0l4.6,2.7c0.2,0.1,0.3,0.3,0.3,0.5v5.4c0,0.2-0.1,0.4-0.3,0.5l-4.6,2.7   c-0.2,0.1-0.4,0.1-0.6,0l-4.6-2.7c-0.2-0.1-0.3-0.3-0.3-0.5v-5.4c0-0.2,0.1-0.4,0.3-0.5L324.9,267.4z" fill="#FFFFFF"/><g><path d="M441,249.6c0,2.4-2,4.4-4.4,4.4c-2.4,0-4.4-2-4.4-4.4c0-2.5,2-4.4,4.4-4.4C439,245.2,441,247.2,441,249.6z     M432.9,249.6c0,2,1.7,3.7,3.7,3.7c2,0,3.7-1.7,3.7-3.7c0-2-1.7-3.7-3.7-3.7C434.6,246,432.9,247.6,432.9,249.6z M435,247.2h1.7    c0.6,0,1.7,0,1.7,1.3c0,0.9-0.6,1.1-0.9,1.2c0.7,0,0.7,0.5,0.8,1.1c0,0.4,0.1,1.1,0.3,1.3h-1c0-0.2-0.2-1.5-0.2-1.6    c-0.1-0.3-0.2-0.4-0.5-0.4h-0.9v2h-1L435,247.2L435,247.2z M435.9,249.3h0.8c0.6,0,0.7-0.4,0.7-0.7c0-0.7-0.5-0.7-0.7-0.7h-0.8    L435.9,249.3C435.9,249.3,435.9,249.3,435.9,249.3z" fill="#FFFFFF"/></g></g></svg>