<?xml version="1.0" ?><!DOCTYPE svg  PUBLIC '-//W3C//DTD SVG 1.1//EN'  'http://www.w3.org/Graphics/SVG/1.1/DTD/svg11.dtd'><svg enable-background="new 0 0 512 512" height="512px" id="Layer_1" version="1.1" viewBox="0 0 512 512" width="512px" xml:space="preserve" xmlns="http://www.w3.org/2000/svg" xmlns:xlink="http://www.w3.org/1999/xlink"><g><polyline fill="#4A98C8" points="0,512 512,512 512,0 0,0 0,512  "/><path d="M512,354c-38-30-152-114-152-114l-183,5l25,136l157,131h153V354" fill="#010101" opacity="0.191"/><path d="M222.766,181.544c5.808,0,10.552,4.82,10.552,10.747c0,5.907-4.745,10.684-10.552,10.684   c-5.83,0-10.552-4.776-10.552-10.684C212.213,186.364,216.936,181.544,222.766,181.544 M253.175,164.307   c-9.614,0.045-18.793,0.865-26.87,2.295c-23.796,4.203-28.115,13.003-28.115,29.229v21.431h56.23v7.146h-56.23h-21.104   c-16.342,0-30.65,9.822-35.127,28.509c-5.164,21.418-5.393,34.783,0,57.146c3.996,16.649,13.542,28.508,29.884,28.508h19.333   V312.88c0-18.558,16.06-34.931,35.129-34.931h56.164c15.636,0,28.118-12.872,28.118-28.574V195.83   c0-15.236-12.858-26.684-28.118-29.229C272.811,164.993,262.786,164.263,253.175,164.307z" fill="#FFFFFF"/><path d="M286.009,360.001c5.829,0,10.551,4.775,10.551,10.685c0,5.926-4.722,10.747-10.551,10.747   c-5.808,0-10.552-4.821-10.552-10.747C275.457,364.776,280.201,360.001,286.009,360.001 M317.598,224.406v24.969   c0,19.359-16.414,35.651-35.129,35.651h-56.164c-15.384,0-28.115,13.167-28.115,28.575v53.545c0,15.237,13.25,24.203,28.115,28.572   c17.799,5.234,34.867,6.182,56.164,0c14.156-4.098,28.118-12.346,28.118-28.572v-21.432h-56.167v-7.146h56.167H338.7   c16.344,0,22.433-11.397,28.116-28.508c5.87-17.613,5.621-34.553,0-57.146c-4.04-16.269-11.752-28.509-28.116-28.509H317.598z" fill="#FFFFFF"/><path d="M156.491,111.553c0,3.729,0.776,6.487,2.328,8.271c1.55,1.786,3.438,2.676,5.664,2.676   c2.135,0,3.914-0.817,5.334-2.455c1.417-1.64,2.129-4.325,2.129-8.056c0-3.48-0.731-6.063-2.196-7.756   c-1.463-1.688-3.275-2.532-5.433-2.532c-2.248,0-4.112,0.829-5.598,2.487C157.233,105.846,156.491,108.303,156.491,111.553    M146.656,95.201h9.835v4.955c1.113-1.693,2.616-3.051,4.511-4.073c1.895-1.022,3.997-1.533,6.302-1.533   c4.03,0,7.451,1.529,10.262,4.585c2.81,3.059,4.215,7.314,4.215,12.771c0,5.615-1.45,9.975-4.352,13.083s-6.421,4.66-10.555,4.66   c-1.969,0-3.75-0.37-5.346-1.111c-1.594-0.74-3.275-2.008-5.038-3.803V142h-9.835V95.201z" fill="#FFFFFF"/><path d="M185.294,95.201h9.834l8.08,23.927l8.079-23.927h9.835l-12.348,32.234l-2.339,6.085   c-0.783,1.976-1.528,3.486-2.233,4.529c-0.707,1.042-1.52,1.89-2.438,2.539c-0.919,0.65-2.047,1.156-3.386,1.518   c-1.339,0.362-2.854,0.542-4.544,0.542c-1.706,0-3.382-0.178-5.028-0.537l-0.703-7.028c1.347,0.279,2.561,0.416,3.645,0.416   c1.998,0,3.474-0.609,4.43-1.833c0.955-1.222,1.688-2.776,2.201-4.666L185.294,95.201" fill="#FFFFFF"/><path d="M245.008,95.201v7.15h-7.023v13.709c0,2.777,0.07,4.395,0.213,4.856c0.142,0.459,0.465,0.838,0.966,1.136   c0.501,0.299,1.109,0.446,1.827,0.446c1.01,0,2.466-0.287,4.368-0.86l0.352,6.721c-2.306,0.861-4.921,1.289-7.849,1.289   c-1.784,0-3.396-0.267-4.833-0.806c-1.44-0.538-2.495-1.236-3.169-2.093c-0.673-0.856-1.137-2.013-1.394-3.468   c-0.211-1.034-0.317-3.125-0.317-6.267v-14.664h-4.918v-7.15h4.918V88.7l9.835-5.199v11.7H245.008" fill="#FFFFFF"/><path d="M259.762,82.201v17.52c3.066-3.446,6.729-5.171,10.989-5.171c2.181,0,4.147,0.381,5.904,1.144   c1.756,0.762,3.081,1.733,3.972,2.919c0.894,1.185,1.503,2.496,1.829,3.931c0.326,1.436,0.488,3.666,0.488,6.693V129h-9.834   v-17.581c0-3.494-0.177-5.708-0.527-6.647c-0.352-0.937-0.972-1.684-1.86-2.237c-0.889-0.558-2.004-0.834-3.342-0.834   c-1.545,0-2.921,0.356-4.128,1.067c-1.207,0.71-2.092,1.782-2.651,3.215c-0.561,1.432-0.84,3.545-0.84,6.342V129h-9.834V82.201   H259.762" fill="#FFFFFF"/><path d="M300.508,112.1c0,3.358,0.845,5.932,2.536,7.72c1.689,1.787,3.778,2.68,6.267,2.68   c2.481,0,4.562-0.893,6.242-2.68c1.678-1.788,2.518-4.382,2.518-7.78c0-3.317-0.84-5.869-2.518-7.657   c-1.681-1.788-3.761-2.682-6.242-2.682c-2.488,0-4.577,0.894-6.267,2.682C301.353,106.17,300.508,108.742,300.508,112.1    M290.672,111.622c0-2.951,0.782-5.807,2.344-8.565c1.563-2.759,3.776-4.866,6.643-6.323c2.862-1.456,6.063-2.184,9.597-2.184   c5.46,0,9.933,1.651,13.421,4.952c3.486,3.301,5.229,7.47,5.229,12.506c0,5.078-1.761,9.29-5.285,12.631   c-3.521,3.34-7.955,5.01-13.297,5.01c-3.308,0-6.464-0.694-9.463-2.086c-3.001-1.391-5.28-3.43-6.844-6.118   C291.454,118.755,290.672,115.482,290.672,111.622z" fill="#FFFFFF"/><path d="M368.651,129h-9.833v-16.992c0-3.589-0.2-5.91-0.594-6.965c-0.396-1.058-1.037-1.879-1.923-2.464   c-0.885-0.586-1.952-0.879-3.204-0.879c-1.604,0-3.039,0.419-4.308,1.254c-1.271,0.837-2.141,1.942-2.612,3.322   c-0.471,1.378-0.709,3.927-0.709,7.65V129h-9.835V95.201h9.835v4.955c3.037-3.737,6.865-5.606,11.481-5.606   c2.026,0,3.884,0.354,5.565,1.062c1.684,0.707,2.955,1.612,3.82,2.712c0.865,1.102,1.467,2.348,1.805,3.742   c0.343,1.395,0.511,3.396,0.511,6.003V129" fill="#FFFFFF"/></g></svg>