<?xml version="1.0" ?><svg id="Lager_1" style="enable-background:new 0 0 128 128;" version="1.1" viewBox="0 0 128 128" xml:space="preserve" xmlns="http://www.w3.org/2000/svg" xmlns:xlink="http://www.w3.org/1999/xlink"><style type="text/css">
	.st0{fill:#CC6699;}
	.st1{fill:#FFFFFF;}
</style><g><g><g><g><circle class="st0" cx="64" cy="64" r="50"/></g></g></g></g><path class="st1" d="M90.9,41.8c-0.6-2.4-2.3-4.4-4.9-5.8c-5.1-2.7-13.3-2.8-20.8-0.1c-4.5,1.6-13,5.2-19.4,11.1  c-6.4,6-7.4,11.3-6.9,13.4c1.1,5.8,7.2,9.9,12,13.3c1.3,0.9,2.5,1.7,3.4,2.5c-2.7,1.4-10,5.5-12,9.8c-1.5,3.4-0.8,5.9-0.2,7  c0.6,1.3,1.6,2.3,2.6,2.6c1,0.3,2.1,0.4,3.2,0.4c4.3,0,8.5-2.3,11.1-6.2c2.6-3.9,2.8-9.1,1.6-12.3c1.7-0.4,3.5-0.4,5.5-0.2  c3.9,0.5,5.8,2,6.7,3.2c1,1.3,1.2,2.6,1.1,3.4c-0.2,1.5-1.4,2.4-2,2.8c-0.5,0.3-0.9,0.6-0.8,1.2c0.2,0.8,1,0.7,1.3,0.7  c0.9-0.2,4.1-1.8,4.3-5.4c0.1-2.2-0.8-4.4-2.5-6.2c-2.2-2.3-5.5-3.5-9.3-3.4c-2.8,0-4.7,0.3-6.2,0.8c0,0-0.1-0.1-0.1-0.1  c-1.4-1.5-3.3-2.9-5-4.3c-4-3-7.7-5.9-7.5-10.2c0.3-5.4,5.6-10.7,15.9-15.8c9.1-4.5,16.5-4.7,20.4-3.3c1.6,0.6,2.7,1.4,3.1,2.3  c0.8,1.7,0.5,3.9-0.9,6.3c-2.3,4-8.1,9-17,10c-5.4,0.6-7.7-1.8-7.8-1.9c-0.6-0.7-1-1.1-1.7-0.7c-0.8,0.4-0.4,1.5-0.2,1.9  c0.4,1.1,2.1,3,5,4c2.3,0.8,8.2,1.3,15.5-1.5C86.8,57.7,92.6,48.7,90.9,41.8z M56.4,84.4c-0.1,0.2-0.1,0.4-0.2,0.6  c-0.1,0.2-0.2,0.4-0.2,0.6c-0.4,0.9-1,1.8-1.8,2.6c-2.3,2.5-5.4,3.2-6.4,2.6c-0.3-0.2-0.4-0.5-0.5-0.9c-0.2-1.2,0.5-3.6,2.6-5.7  c2.5-2.6,6-4.5,6.8-4.9C57,81.1,56.9,82.8,56.4,84.4z"/></svg>