<?xml version="1.0" ?><!DOCTYPE svg  PUBLIC '-//W3C//DTD SVG 1.1//EN'  'http://www.w3.org/Graphics/SVG/1.1/DTD/svg11.dtd'><svg enable-background="new 0 0 24 24" height="24px" id="Layer_1" version="1.1" viewBox="0 0 24 24" width="24px" xml:space="preserve" xmlns="http://www.w3.org/2000/svg" xmlns:xlink="http://www.w3.org/1999/xlink"><g><path d="M1,12c0,3.8,1.9,7.2,5,9.2L1.5,8.8C1.2,9.8,1,10.9,1,12z"/><path d="M9.4,22.7c1.9,0.5,3.9,0.4,5.7-0.1l-2.9-8L9.4,22.7z"/><path d="M18.4,8.5l-0.1-0.2c-0.5-0.9-1.1-1.7-1.1-2.7c0-1,0.6-1.9,1.4-2.3C16.7,1.8,14.4,1,12,1C8.6,1,5.5,2.6,3.4,5.2   c1.2,0,2.8-0.1,2.8-0.1c0,0,0,0,0,0c0.6,0,1,0.4,1,0.9c0,0.5-0.3,1-0.9,1c0,0-0.3,0-0.7,0.1l3.5,10.4l2-5.9L9.5,7.1   C9,7.1,8.6,7,8.6,7C8.1,7,7.7,6.6,7.7,6c0-0.5,0.4-1,1-1c0.1,0,2,0.1,3.1,0.1c1.2,0,3-0.1,3-0.1c0,0,0,0,0,0c0.6,0,1,0.4,1,0.9   c0,0.5-0.3,1-0.9,1c0,0-0.3,0-0.7,0.1l3.4,10.2l0.8-2.6c0.4-1.4,0.8-2.4,0.8-3.2C19.2,10.2,18.8,9.3,18.4,8.5z"/><path d="M22.6,9c-0.1,0.9-0.4,1.9-0.8,3l-3,8.7c2.6-2.1,4.2-5.3,4.2-8.7C23,11,22.8,10,22.6,9z"/></g></svg>