<?xml version="1.0" ?><svg height="500" id="svg2" version="1.1" width="500" xmlns="http://www.w3.org/2000/svg" xmlns:cc="http://creativecommons.org/ns#" xmlns:dc="http://purl.org/dc/elements/1.1/" xmlns:inkscape="http://www.inkscape.org/namespaces/inkscape" xmlns:rdf="http://www.w3.org/1999/02/22-rdf-syntax-ns#" xmlns:sodipodi="http://sodipodi.sourceforge.net/DTD/sodipodi-0.dtd" xmlns:svg="http://www.w3.org/2000/svg"><defs id="defs4"/><g id="layer1" transform="translate(0,-552.36218)"><rect height="500" id="rect2990-1" rx="250" ry="250" style="fill:#cc181e;fill-opacity:1;stroke:none" width="500" x="0" y="552.36218"/><g id="layer1-9" transform="translate(-549.00515,80.294372)"/><g id="layer1-6" transform="translate(-575.71429,39.999999)"/><g id="layer1-1" transform="translate(-162.09821,1.8080339)"><g id="形状_1_3_" style="enable-background:new" transform="matrix(1.21711,0,0,1.21711,112.82456,368.85377)"><g id="形状_1"><g id="g2991"/></g></g><g id="形状_1_2_" style="enable-background:new" transform="matrix(1.21711,0,0,1.21711,-175.03531,575.68723)"><g id="形状_1_1_"><g id="g2997"/></g></g></g><path d="m 164.13157,642.36218 c 3.79124,11.14563 7.75749,22.32513 11.55264,33.47368 5.77055,16.75955 9.36916,29.38285 11,38 l 0,48.68421 18,0 0,-48.68421 21.63157,-71.47368 -18.18421,0 -12.26315,47.18421 -12.81579,-47.18421 -18.92106,0 z m 86.28948,29.52632 c -8.0827,0 -14.38413,3.06028 -18.86842,9.18421 -3.45157,4.52442 -5.07895,11.53369 -5.07895,21.10526 l 0,31.3421 c 0,9.51675 1.62738,16.57227 5.07895,21.05264 4.48527,6.1063 10.7867,9.18421 18.86842,9.18421 8.13065,0 14.45916,-3.07791 18.94737,-9.18421 3.40164,-4.48037 5.02631,-11.53589 5.02631,-21.05264 l 0,-31.3421 c 0,-9.57059 -1.62467,-16.58084 -5.02631,-21.10526 -4.48821,-6.12393 -10.81672,-9.18421 -18.94737,-9.18421 z m 37.31579,1.07894 0,70.81579 c 0,6.32068 0.57799,10.60133 1.47368,13.31579 1.61811,4.53519 5.19868,6.6579 10.42105,6.6579 5.91837,0 12.0949,-3.59667 18.55264,-11 l 0,9.76315 16.21052,0 0,-89.55263 -16.21052,0 0,68.44737 c -3.5945,5.08142 -7.01912,7.57895 -10.26316,7.57895 -2.17802,0 -3.4312,-1.27765 -3.78948,-3.78947 -0.19517,-0.53056 -0.21052,-2.51379 -0.21052,-6.31579 l 0,-65.92106 -16.18421,0 z m -37.31579,13.52632 c 5.23216,0 7.73684,4.13672 7.73684,12.42105 l 0,37.68421 c 0,8.28629 -2.50566,12.39474 -7.73684,12.39474 -5.23119,0 -7.73684,-4.10845 -7.73684,-12.39474 l 0,-37.68421 c 0,-8.28433 2.50565,-12.42105 7.73684,-12.42105 z m -6.5,90.68421 c -31.17078,0 -62.45412,0.22972 -93.36842,3.68421 -13.91002,1.55448 -25.46063,12.00133 -28.71053,26.13158 -4.62424,20.12399 -4.68421,42.0713 -4.68421,62.78947 l 0,1.5 c 0.002,20.28159 0.11694,41.64417 4.63158,61.28948 3.24991,14.12928 14.82682,24.57806 28.73684,26.13158 30.95052,3.45928 62.24037,3.65789 93.44737,3.65789 l 6.02632,0 6.02631,0 c 31.20601,0 62.4988,-0.19861 93.44737,-3.65789 13.91,-1.55352 25.48693,-12.0023 28.73684,-26.13158 4.55869,-19.84011 4.6299,-41.46034 4.63158,-61.92106 l 0,-0.86842 c 0,-20.71817 0.0453,-42.66548 -4.57895,-62.78947 -3.24892,-14.13025 -14.80148,-24.5771 -28.71052,-26.13158 -30.91626,-3.45352 -62.19667,-3.68421 -93.36842,-3.68421 l -6.13158,0 -6.13158,0 z m -106.94737,33.05263 56,0 0,16.73684 -19.23684,0 0,102.18421 -17.86842,0 0,-102.18421 -18.89474,0 0,-16.73684 z m 118.39474,0 16.05263,0 0,38.84211 c 5.18419,-6.38039 10.7006,-9.60527 16.60526,-9.60527 6.39117,0 10.66222,3.36412 12.81579,10 1.06405,3.56609 1.63158,9.43064 1.63158,17.81579 l 0,35.26316 c 0,8.20113 -0.56851,14.11144 -1.63158,17.86842 -2.15357,6.58694 -6.42462,9.94737 -12.81579,9.94737 -5.70791,0 -11.24095,-3.15164 -16.60526,-9.78947 l 0,8.57894 -16.05263,0 0,-118.92105 z m 83.76315,29.23684 c 8.05528,0 14.47667,3.01376 18.97369,9.07895 3.36248,4.48136 4.94737,11.39866 4.94737,20.86842 l 0,18.34211 -32.10527,0 0,15.71052 c 0,8.20113 2.66818,12.31579 8.18421,12.31579 3.95863,0 6.29331,-2.15102 7.21053,-6.44737 0.14585,-0.87513 0.34211,-4.45462 0.34211,-10.89473 l 16.36842,0 0,2.36842 c 0,5.1646 -0.19136,8.74064 -0.34211,10.3421 -0.53545,3.56609 -1.78102,6.7655 -3.73684,9.60527 -4.43829,6.43325 -11.03589,9.60526 -19.42105,9.60526 -8.39887,0 -14.8045,-3.0255 -19.44737,-9.07895 -3.41241,-4.43436 -5.13158,-11.39986 -5.13158,-20.81579 l 0,-31.05263 c 0,-9.46976 1.5379,-16.38706 4.94737,-20.86842 4.64385,-6.06519 11.01623,-9.07895 19.21052,-9.07895 z m -143.81579,1.07895 16.02632,0 0,65.23684 c 0,3.76285 0.009,5.70628 0.1579,6.23684 0.39058,2.48736 1.61743,3.73685 3.76315,3.73685 3.2225,0 6.59376,-2.44415 10.1579,-7.47369 l 0,-67.73684 16.05263,0 0,88.60526 -16.05263,0 0,-9.65789 c -6.38236,7.3211 -12.4394,10.86842 -18.34211,10.86842 -5.17245,0 -8.76206,-2.0927 -10.36842,-6.57895 -0.87415,-2.68411 -1.39474,-6.90377 -1.39474,-13.15789 l 0,-70.07895 z m 84.10527,13.36842 c -2.63909,0 -5.31295,1.24587 -8,3.89474 l 0,54 c 2.68705,2.68412 5.35993,3.94737 8,3.94737 4.63112,0 7,-3.9157 7,-11.92106 l 0,-37.8421 c 0,-8.00536 -2.36888,-12.07895 -7,-12.07895 z m 59.60526,0 c -5.37019,0 -8.07895,4.09422 -8.07895,12.28948 l 0,8.18421 16.05264,0 0,-8.18421 c 9.8e-4,-8.19624 -2.65832,-12.28948 -7.97369,-12.28948 z" id="rect2989-7" style="opacity:1;fill:#ffffff;fill-opacity:1;stroke:none"/></g></svg>